<?xml version="1.0"?>
<svg xmlns="http://www.w3.org/2000/svg" height="512px" viewBox="-36 0 512 512.001" width="512px"><g><path d="m307.242188 395.835938c-3.863282-3.476563-8.039063-5.882813-12.074219-8.207032-3.511719-2.023437-6.824219-3.929687-9.496094-6.332031-2.761719-2.492187-3.214844-6.109375-1.175781-9.445313 1.21875-1.996093 3.777344-3.339843 6.675781-3.511718 1.945313-.109375 4.5625.992187 6.179687 2.628906.707032.722656 1.535157 1.835938 1.449219 3.058594-.300781 4.136718 2.8125 7.738281 6.953125 8.035156 4.128906.292969 7.738282-2.8125 8.035156-6.953125.386719-5.332031-1.652343-10.550781-5.738281-14.691406-2.542969-2.578125-5.722656-4.554688-9.105469-5.761719v-4.78125c0-4.152344-3.363281-7.515625-7.515624-7.515625-4.152344 0-7.515626 3.367187-7.515626 7.515625v4.675781c-5.148437 1.683594-9.511718 4.992188-12.242187 9.464844-5.777344 9.453125-4.15625 21.152344 3.945313 28.449219 3.847656 3.464844 8.015624 5.867187 12.046874 8.1875 3.519532 2.027344 6.839844 3.941406 9.519532 6.355468 2.765625 2.488282 3.21875 6.109376 1.179687 9.445313-1.21875 1.992187-3.777343 3.335937-6.675781 3.507813-1.9375.113281-4.5625-.992188-6.179688-2.632813-.710937-.71875-1.535156-1.832031-1.449218-3.050781.300781-4.140625-2.8125-7.738282-6.953125-8.039063-4.15625-.296875-7.738281 2.8125-8.035157 6.953125-.386718 5.332032 1.652344 10.546875 5.734376 14.691406 2.546874 2.582032 5.726562 4.554688 9.109374 5.761719v4.78125c0 4.148438 3.363282 7.515625 7.515626 7.515625 4.148437 0 7.515624-3.367187 7.515624-7.515625v-4.671875c5.148438-1.6875 9.511719-4.996094 12.242188-9.46875 5.777344-9.453125 4.152344-21.152344-3.945312-28.449218zm0 0" data-original="#000000" class="active-path" data-old_color="#000000" fill="#248EA9"/><path d="m135.941406 197.828125c-17.484375 0-31.707031 14.226563-31.707031 31.707031v217.101563c0 17.484375 14.226563 31.707031 31.707031 31.707031h234.148438c17.484375 0 31.707031-14.226562 31.707031-31.707031v-217.101563c0-17.484375-14.222656-31.707031-31.707031-31.707031zm37.871094 265.484375s.003906 0 .003906-.003906h-20.816406c-4.167969 0-7.558594-3.390625-7.558594-7.558594v-28.847656c0-4.167969 3.390625-7.558594 7.558594-7.558594h58.09375c5.65625 18.003906 17.214844 33.417969 32.394531 43.96875zm34.054688-59.066406h-53.886719c-4.167969 0-7.558594-3.390625-7.558594-7.558594v-28.847656c0-4.167969 3.390625-7.558594 7.558594-7.558594h60.359375c-4.636719 10.550781-7.097656 22.035156-7.097656 33.871094-.003907 3.417968.226562 6.78125.625 10.09375zm14.402343-10.09375c0-18.082032 6.933594-35.183594 19.523438-48.15625 2.886719-2.980469 2.816406-7.738282-.164063-10.628906-2.976562-2.890626-7.734375-2.816407-10.625.160156-2.949218 3.039062-5.636718 6.273437-8.066406 9.65625h-68.957031c-4.167969 0-7.558594-3.390625-7.558594-7.558594v-28.847656c0-4.023438 3.164063-7.3125 7.136719-7.535156.140625 0 .277344.011718.421875.011718h123.347656c.140625 0 .28125-.011718.421875-.011718 3.972656.21875 7.136719 3.511718 7.136719 7.535156v1.445312c-7.199219.550782-14.265625 2.011719-21.082031 4.378906-3.917969 1.359376-5.996094 5.640626-4.632813 9.5625 1.359375 3.921876 5.640625 5.992188 9.566406 4.636719 7.273438-2.527343 14.910157-3.808593 22.6875-3.808593 38.132813 0 69.160157 31.023437 69.160157 69.15625 0 38.136718-31.027344 69.160156-69.160157 69.160156-38.132812 0-69.15625-31.023438-69.15625-69.15625zm-75.847656-115.492188v-28.84375c0-4.171875 3.390625-7.5625 7.558594-7.5625h123.347656c4.167969 0 7.558594 3.394532 7.558594 7.5625v28.84375c0 4.027344-3.164063 7.316406-7.132813 7.539063-.140625-.003907-.28125-.011719-.425781-.011719h-123.34375c-.144531 0-.285156.007812-.429687.011719-3.96875-.222657-7.132813-3.511719-7.132813-7.539063zm240.34375-49.125v217.101563c0 9.195312-7.480469 16.675781-16.675781 16.675781h-30.738282c21.894532-15.21875 36.265626-40.535156 36.265626-69.160156 0-43.558594-33.25-79.492188-75.699219-83.761719v-1.613281c0-5.78125-2.183594-11.058594-5.769531-15.058594 3.585937-4 5.769531-9.277344 5.769531-15.058594v-28.84375c0-12.457031-10.132813-22.59375-22.589844-22.59375h-123.347656c-12.457031 0-22.589844 10.136719-22.589844 22.59375v28.84375c0 5.78125 2.183594 11.0625 5.769531 15.0625-3.582031 4-5.769531 9.273438-5.769531 15.054688v28.847656c0 5.800781 2.203125 11.101562 5.8125 15.105469-3.609375 4.003906-5.8125 9.304687-5.8125 15.109375v28.84375c0 5.546875 2.015625 10.632812 5.34375 14.570312-3.910156 4.0625-6.320313 9.574219-6.320313 15.644532v28.847656c0 2.425781.394532 4.757812 1.105469 6.949218-7.050781-1.945312-12.253906-8.398437-12.253906-16.0625v-217.101562c0-9.195312 7.480469-16.675781 16.679687-16.675781h234.144532c9.195312.003906 16.675781 7.484375 16.675781 16.679687zm0 0" data-original="#000000" class="active-path" data-old_color="#000000" fill="#248EA9"/><path d="m83.316406 153.890625c0-4.089844-2.285156-7.734375-5.96875-9.507813-15.269531-7.363281-22.707031-17.363281-26.257812-24.453124-1.796875-3.585938-5.410156-5.816407-9.429688-5.816407-4.023437 0-7.632812 2.226563-9.433594 5.8125v.003907c-3.550781 7.089843-10.988281 17.089843-26.257812 24.453124-3.683594 1.773438-5.96875 5.417969-5.96875 9.507813 0 4.085937 2.285156 7.730469 5.96875 9.503906 15.273438 7.363281 22.710938 17.363281 26.261719 24.457031 1.796875 3.585938 5.410156 5.8125 9.429687 5.8125 4.019532 0 7.632813-2.226562 9.429688-5.8125 3.550781-7.09375 10.988281-17.09375 26.261718-24.457031 3.679688-1.773437 5.964844-5.417969 5.964844-9.503906zm-41.65625 20.390625c-4.480468-6.617188-11.335937-14.03125-21.746094-20.390625 10.410157-6.359375 17.265626-13.773437 21.746094-20.394531 4.476563 6.621094 11.332032 14.035156 21.742188 20.394531-10.410156 6.359375-17.265625 13.773437-21.742188 20.390625zm0 0" data-original="#000000" class="active-path" data-old_color="#000000" fill="#248EA9"/><path d="m433.007812 242.253906c4.152344 0 7.515626-3.363281 7.515626-7.515625v-16.257812c0-28.445313-22.734376-51.679688-50.984376-52.492188v-18.074219h6.703126c11.867187 0 21.523437-9.652343 21.523437-21.519531v-33.09375c0-8.640625-5.132813-16.089843-12.5-19.511719 1.367187-.722656 2.765625-1.4375 4.210937-2.136718 4.355469-2.101563 7.066407-6.414063 7.0625-11.253906 0-4.84375-2.707031-9.15625-7.0625-11.257813-26.253906-12.65625-39.101562-29.96875-45.257812-42.261719-2.125-4.242187-6.402344-6.878906-11.164062-6.878906-4.757813 0-9.035157 2.636719-11.160157 6.878906-6.15625 12.292969-19.003906 29.605469-45.257812 42.261719-4.355469 2.101563-7.0625 6.414063-7.0625 11.257813 0 4.839843 2.707031 9.15625 7.0625 11.257812.085937.039062.167969.082031.253906.125h-187.101563c-11.867187 0-21.523437 9.652344-21.523437 21.523438v33.089843c0 11.867188 9.65625 21.523438 21.523437 21.523438h6.703126v18.074219c-28.25.8125-50.984376 24.042968-50.984376 52.488281v241.011719c0 28.953124 23.554688 52.507812 52.511719 52.507812h269.992188c28.953125 0 52.511719-23.554688 52.511719-52.507812v-190.480469c0-4.152344-3.363282-7.515625-7.515626-7.515625-4.152343 0-7.515624 3.367187-7.515624 7.515625v190.476562c0 20.667969-16.8125 37.480469-37.480469 37.480469h-269.992188c-20.667969 0-37.480469-16.8125-37.480469-37.480469v-241.007812c0-20.667969 16.8125-37.480469 37.480469-37.480469 7.445313 0 13.503907-6.058594 13.503907-13.503906v-19.578125h242.984374v19.578125c0 7.445312 6.058594 13.503906 13.503907 13.503906 20.667969 0 37.480469 16.8125 37.480469 37.480469v16.257812c0 4.152344 3.363281 7.515625 7.515624 7.515625zm-79.953124-224.378906c7.457031 13.128906 21.03125 29.679688 45.371093 42.523438-24.339843 12.839843-37.914062 29.394531-45.371093 42.523437-7.453126-13.128906-21.027344-29.683594-45.363282-42.523437 24.335938-12.84375 37.910156-29.394532 45.363282-42.523438zm-243.265626 115.011719c-3.582031 0-6.492187-2.914063-6.492187-6.492188v-33.09375c0-3.578125 2.910156-6.492187 6.492187-6.492187h210.445313c11.09375 9.40625 17.738281 19.273437 21.660156 27.105468 2.125 4.242188 6.402344 6.878907 11.164063 6.878907 4.761718 0 9.035156-2.636719 11.160156-6.878907 3.921875-7.832031 10.570312-17.699218 21.660156-27.105468h10.363282c3.582031 0 6.492187 2.914062 6.492187 6.492187v33.09375c0 3.578125-2.910156 6.492188-6.492187 6.492188zm0 0" data-original="#000000" class="active-path" data-old_color="#000000" fill="#248EA9"/></g> </svg>
