<?xml version="1.0"?>
<svg xmlns="http://www.w3.org/2000/svg" xmlns:xlink="http://www.w3.org/1999/xlink" version="1.1" id="Capa_1" x="0px" y="0px" viewBox="0 0 58 58" style="enable-background:new 0 0 58 58;" xml:space="preserve" width="512px" height="512px" class=""><g transform="matrix(5.98281e-17 0.977066 -0.977066 5.98281e-17 57.3349 0.665078)"><g>
	<rect x="14" y="14" style="fill:#25606F" width="30" height="30" data-original="#556080" class="" data-old_color="#556080"/>
	<polygon style="fill:#448495" points="14,14 0,14 0,58 14,44  " data-original="#434C6D" class="" data-old_color="#434C6D"/>
	<polygon style="fill:#21839D" points="44,14 58,0 14,0 14,14  " data-original="#7383BF" class="" data-old_color="#7383BF"/>
	<polygon style="fill:#03B6E4" points="14,0 0,14 14,14  " data-original="#59699B" class="" data-old_color="#59699B"/>
	<polygon style="fill:#14AAD0" points="14,44 0,58 44,58 44,44  " data-original="#333C56" class="" data-old_color="#333C56"/>
	<polygon style="fill:#448495" points="44,14 44,44 58,44 58,0  " data-original="#434C6D" class="" data-old_color="#434C6D"/>
	<polygon style="fill:#0788AB" points="44,58 58,44 44,44  " data-original="#47526D" class="active-path" data-old_color="#47526D"/>
</g></g> </svg>
