<?xml version="1.0"?>
<svg xmlns="http://www.w3.org/2000/svg" id="Capa_1" enable-background="new 0 0 512 512" height="512px" viewBox="0 0 512 512" width="512px"><g><path d="m507.559 364.838-103.826-102.89c16.207-45.66-.65-97.312-42.732-123.808v-63.14c0-3.978-1.581-7.794-4.394-10.607l-60-60c-2.814-2.813-6.629-4.393-10.607-4.393h-271c-8.284 0-15 6.716-15 15v212c0 8.284 6.716 15 15 15h107.093c5.041 34.394 27.164 64.396 58.907 79.491v19.296l-25.606 25.606c-5.858 5.858-5.858 15.355 0 21.213l19.393 19.394-19.393 19.393c-5.858 5.858-5.858 15.355 0 21.213l60 60c5.857 5.857 15.355 5.858 21.213 0l30-30c2.812-2.812 4.393-6.628 4.393-10.606v-140.775c22.23 7.474 46.783 7.284 69.068-.598l13.653 13.653v36.213c0 8.284 6.716 15 15 15h27.426v27.427c0 8.284 6.716 15 15 15h85.853c8.284 0 15-6.716 15-15v-42.427c0-4.002-1.599-7.838-4.441-10.655zm-477.559-334.838h249.787l51.213 51.213v44.04c-21.368-5.445-44.318-4.14-65.48 4.474-7.757-3.163-15.974-5.424-24.52-6.652v-31.075h15c8.284 0 15-6.716 15-15s-6.716-15-15-15h-60c-8.284 0-15 6.716-15 15s6.716 15 15 15h15v31.076c-45.916 6.597-82.327 43.008-88.924 88.924h-92.076zm211 281.489v149.298l-15 15-38.787-38.787 19.393-19.393c5.858-5.858 5.858-15.355 0-21.213l-19.393-19.394 19.393-19.393c2.813-2.813 4.394-6.629 4.394-10.607v-35.511c0-6.347-3.995-12.008-9.976-14.134-29.919-10.636-50.021-38.906-50.024-70.348 0-.002 0-.005 0-.007s0-.004 0-.006c.003-36.217 25.81-66.516 60-73.484v43.49c0 8.284 6.716 15 15 15s15-6.716 15-15v-43.491c34.192 6.968 60 37.271 60 73.491 0 31.445-20.103 59.719-50.024 70.355-5.981 2.126-9.976 7.786-9.976 14.134zm241 91.43h-55.853v-27.427c0-8.284-6.716-15-15-15h-27.426v-27.426c0-3.978-1.581-7.793-4.394-10.607l-25.11-25.11c-4.488-4.489-11.316-5.666-17.047-2.94-11.808 5.614-24.852 7.986-37.65 7.132 19.676-19.303 31.48-45.978 31.48-74.541 0-29.257-12.033-55.753-31.403-74.812 57.268-4.16 97.647 54.841 72.893 106.9-2.736 5.755-1.538 12.61 2.988 17.096l106.522 105.561z" data-original="#000000" class="active-path" data-old_color="#000000" fill="#248EA9"/></g> </svg>
