<?xml version="1.0"?>
<svg xmlns="http://www.w3.org/2000/svg" height="512px" viewBox="0 -56 448 448" width="512px"><g><path d="m448 96v-96h-128v72h-16v-72h-160v72h-16v-72h-128v96h104v16h-104v112h104v16h-104v96h128v-72h16v72h160v-72h16v72h128v-96h-104v-16h104v-112h-104v-16zm-312 152c-8.835938 0-16-7.164062-16-16s7.164062-16 16-16 16 7.164062 16 16-7.164062 16-16 16zm-8-48v-64h16v64zm8-80c-8.835938 0-16-7.164062-16-16s7.164062-16 16-16 16 7.164062 16 16-7.164062 16-16 16zm144 120h-112v-16h112zm0-128h-112v-16h112zm32 136c-8.835938 0-16-7.164062-16-16s7.164062-16 16-16 16 7.164062 16 16-7.164062 16-16 16zm-8-48v-64h16v64zm8-80c-8.835938 0-16-7.164062-16-16s7.164062-16 16-16 16 7.164062 16 16-7.164062 16-16 16zm0 0" data-original="#000000" class="active-path" data-old_color="#000000" fill="#1F819B"/></g> </svg>
